<?xml version="1.0" encoding="UTF-8" standalone="no"?>
<!DOCTYPE svg PUBLIC "-//W3C//DTD SVG 1.1//EN" "http://www.w3.org/Graphics/SVG/1.1/DTD/svg11.dtd">
<svg width="100%" height="100%" viewBox="0 0 300 200" version="1.1" xmlns="http://www.w3.org/2000/svg" xmlns:xlink="http://www.w3.org/1999/xlink" xml:space="preserve" xmlns:serif="http://www.serif.com/" style="fill-rule:evenodd;clip-rule:evenodd;stroke-linejoin:round;stroke-miterlimit:2;">
    <g style="fill:#fff" transform="matrix(1,0,0,1,0,-572.982)">
        <g id="nibiru_lockup" transform="matrix(0.292969,0,0,0.189637,0,572.982)">
            <rect x="0" y="0" width="1024" height="1054.65" style="fill:none;"/>
            <g transform="matrix(0.666667,0,0,1.5,-1235.63,-738.254)">
                <g transform="matrix(5.12,0,0,3.5155,-25107.3,-35285.6)">
                    <path d="M5529.74,10361.1C5537.07,10361.1 5541.53,10356.1 5541.53,10347.8L5541.53,10329.4L5553.14,10329.4L5553.14,10348C5553.14,10363.3 5543.97,10372.8 5529.74,10372.8C5515.51,10372.8 5506.34,10363.3 5506.34,10348L5506.34,10329.4L5517.95,10329.4L5517.95,10347.8C5517.95,10356.1 5522.41,10361.1 5529.74,10361.1ZM5278.39,10310.4L5278.39,10372.1L5290,10372.1L5290,10372L5325.97,10372L5325.97,10310.9L5314.36,10310.9L5314.36,10345.3L5279.18,10310.4L5278.39,10310.4ZM5340.81,10372.1L5352.42,10372.1L5352.42,10329.4L5340.81,10329.4L5340.81,10372.1ZM5423.66,10372.1L5435.28,10372.1L5435.28,10329.4L5423.66,10329.4L5423.66,10372.1ZM5472.73,10310.9L5447.05,10310.9L5457.51,10329.1L5457.51,10329.1L5463.83,10340L5450.12,10340L5450.12,10372.1L5461.73,10372.1L5461.73,10351.1L5470.2,10351.1L5481.02,10369.8L5482.33,10372.1L5495.7,10372.1L5482.54,10349.3C5490,10346.1 5493.94,10339.2 5493.94,10331C5493.94,10319.8 5486.35,10310.9 5472.73,10310.9ZM5378.84,10310.9L5389.09,10310.9C5400.79,10310.9 5407.69,10318.9 5407.69,10328.4C5407.69,10332.9 5405.51,10336.9 5402.19,10339.8C5407.51,10342.5 5411.01,10347 5411.01,10353.4C5411.01,10364.1 5404.02,10372.1 5390.58,10372.1L5379.01,10372.1L5379.01,10361L5390.58,10361C5395.99,10361 5398.87,10357.7 5398.87,10353.4C5398.87,10349 5395.99,10345.8 5390.58,10345.8L5381.37,10345.8L5381.37,10345.8L5367.27,10345.8L5367.27,10302.7L5378.84,10302.7L5378.84,10310.9ZM5290,10362.2L5314.55,10362.2L5290,10337.8L5290,10362.2ZM5379.01,10361L5378.88,10361L5378.88,10361L5379.01,10361L5379.01,10361ZM5476.73,10339.2C5479.98,10337.8 5481.9,10334.8 5481.9,10331C5481.9,10325.8 5478.23,10322.1 5472.47,10322.1L5466.86,10322.1L5476.73,10339.2ZM5378.84,10334.7L5378.84,10322.1L5389.35,10322.1C5393.89,10322.1 5395.81,10325.1 5395.81,10328.4C5395.81,10331.7 5393.89,10334.7 5389.35,10334.7L5378.84,10334.7ZM5340.81,10310.9L5340.81,10320.8L5352.42,10320.8L5352.42,10310.9L5340.81,10310.9ZM5423.66,10310.9L5423.66,10320.8L5435.28,10320.8L5435.28,10310.9L5423.66,10310.9ZM5553.14,10310.9L5506.34,10310.9L5506.34,10320.8L5553.14,10320.8L5553.14,10310.9Z"/>
                </g>
                <g transform="matrix(1.17477,0,0,0.80662,-7873.95,-6858.91)">
                    <path d="M8696.4,9397.98L8919,9620.58L8919,9517.49C8859.47,9510.12 8813.28,9459.43 8812.99,9397.98L8696.4,9397.98ZM9171.61,9397.98L9055.01,9397.98C9054.72,9459.43 9008.54,9510.11 8949,9517.49L8949,9620.58L9171.61,9397.98ZM8847.95,9427.09C8844.74,9417.78 8842.99,9407.79 8842.99,9397.4C8842.99,9347.17 8883.77,9306.39 8934,9306.39C8984.23,9306.39 9025.01,9347.17 9025.01,9397.4C9025.01,9407.79 9023.27,9417.78 9020.05,9427.09C9000.8,9400.38 8969.42,9382.98 8934,9382.98C8898.59,9382.98 8867.21,9400.38 8847.95,9427.09ZM8759.18,9368.31L8698.39,9368.31L8934,9132.7L9169.62,9368.31L9108.82,9368.31L8934,9193.42L8759.18,9368.31Z"/>
                </g>
            </g>
        </g>
    </g>
</svg>
